HIERARCHY
ROOT Hips
{
 OFFSET 0.000000 0.000000 0.000000
 CHANNELS 6 Xposition Yposition Zposition Yrotation Xrotation Zrotation
 JOINT Chest
 {
  OFFSET 0.000000 10.383400 0.001500
  CHANNELS 3 Yrotation Xrotation Zrotation
  JOINT Chest2
  {
   OFFSET 0.000000 10.418200 -0.003100
   CHANNELS 3 Yrotation Xrotation Zrotation
   JOINT Chest3
   {
    OFFSET 0.000000 10.375100 0.000000
    CHANNELS 3 Yrotation Xrotation Zrotation
    JOINT Chest4
    {
     OFFSET 0.000000 10.364600 0.000000
     CHANNELS 3 Yrotation Xrotation Zrotation
     JOINT Neck
     {
      OFFSET 0.000000 15.642200 0.000000
      CHANNELS 3 Yrotation Xrotation Zrotation
      JOINT Head
      {
       OFFSET 0.000000 9.697300 -0.006500
       CHANNELS 3 Yrotation Xrotation Zrotation
       End Site
       {
        OFFSET 0.000000 18.492200 -0.003400
       }
      }
     }
     JOINT RightCollar
     {
      OFFSET -3.166800 10.349300 0.000000
      CHANNELS 3 Yrotation Xrotation Zrotation
      JOINT RightShoulder
      {
       OFFSET -14.729700 0.000000 0.000000
       CHANNELS 3 Yrotation Xrotation Zrotation
       JOINT RightElbow
       {
        OFFSET 0.000000 -32.224300 0.000000
        CHANNELS 3 Yrotation Xrotation Zrotation
        JOINT RightWrist
        {
         OFFSET 0.000000 -26.084100 0.000000
         CHANNELS 3 Yrotation Xrotation Zrotation
         End Site
         {
          OFFSET 0.000000 -19.319400 0.000000
         }
        }
       }
      }
     }
     JOINT LeftCollar
     {
      OFFSET 3.166800 10.349300 0.000000
      CHANNELS 3 Yrotation Xrotation Zrotation
      JOINT LeftShoulder
      {
       OFFSET 14.729700 0.000000 0.000000
       CHANNELS 3 Yrotation Xrotation Zrotation
       JOINT LeftElbow
       {
        OFFSET 0.000000 -32.224300 0.000000
        CHANNELS 3 Yrotation Xrotation Zrotation
        JOINT LeftWrist
        {
         OFFSET 0.000000 -26.084100 0.000000
         CHANNELS 3 Yrotation Xrotation Zrotation
         End Site
         {
          OFFSET 0.000000 -19.319400 0.000000
         }
        }
       }
      }
     }
    }
   }
  }
 }
 JOINT RightHip
 {
  OFFSET -8.428900 -0.007500 -0.000800
  CHANNELS 3 Yrotation Xrotation Zrotation
  JOINT RightKnee
  {
   OFFSET 0.000000 -43.834600 0.000700
   CHANNELS 3 Yrotation Xrotation Zrotation
   JOINT RightAnkle
   {
    OFFSET 0.000000 -42.757000 0.001200
    CHANNELS 3 Yrotation Xrotation Zrotation
    JOINT RightToe
    {
     OFFSET 0.000000 -6.946900 15.649300
     CHANNELS 3 Yrotation Xrotation Zrotation
     End Site
     {
      OFFSET 0.000000 -1.580800 6.825800
     }
    }
   }
  }
 }
 JOINT LeftHip
 {
  OFFSET 8.428900 -0.007500 -0.000800
  CHANNELS 3 Yrotation Xrotation Zrotation
  JOINT LeftKnee
  {
   OFFSET 0.000000 -43.834600 0.000700
   CHANNELS 3 Yrotation Xrotation Zrotation
   JOINT LeftAnkle
   {
    OFFSET 0.000000 -42.757000 0.001200
    CHANNELS 3 Yrotation Xrotation Zrotation
    JOINT LeftToe
    {
     OFFSET 0.000000 -6.946900 15.649300
     CHANNELS 3 Yrotation Xrotation Zrotation
     End Site
     {
      OFFSET 0.000000 -1.580800 6.825800
     }
    }
   }
  }
 }
}
MOTION
Frames: 6
Frame Time: 0.008333
124.488128 126.623013 32.288652 -13.835424 -22.263666 -2.355844 -1.071690 22.591921 3.075334 -0.225658 3.229659 0.459365 -0.370454 5.322789 0.801913 -0.975138 19.081803 2.639322 0.708825 6.446065 -1.004658 1.952344 -23.800769 -2.388825 4.804294 -9.413986 -3.737764 -4.668071 -42.693101 -2.070677 -94.105705 -30.096882 101.162730 -10.921981 -11.473928 16.811467 -10.475221 -13.106413 -2.537875 5.909837 -38.390410 6.479162 86.872526 -29.244071 -109.648313 20.949071 -20.711200 -12.222681 -2.566942 -45.684474 -2.030504 -19.403801 74.729858 -18.805007 1.492965 -4.087473 4.250938 0.005341 -0.017665 0.002370 -6.961630 -39.273713 -7.456434 5.729795 70.219828 8.299779 -9.948513 -6.362349 -1.670967 -0.003224 -0.004695 -0.001431
124.485436 126.626148 32.292168 -13.859836 -22.260979 -2.350085 -1.070761 22.643562 3.114614 -0.226448 3.244545 0.466459 -0.365757 5.358400 0.814941 -0.963756 19.116887 2.676128 0.781733 6.339393 -1.140480 2.174625 -23.992383 -2.703826 4.955193 -9.506480 -3.722224 -4.676018 -42.949622 -1.958611 -94.162155 -30.444416 100.111657 -11.194428 -11.650921 17.029959 -10.522875 -13.184174 -2.546618 5.691018 -38.508568 6.591997 86.805553 -29.288646 -108.331542 20.973029 -20.788328 -12.353861 -2.541123 -45.677351 -2.038917 -19.358136 74.710615 -18.749854 1.493265 -4.086461 4.252900 0.004676 -0.015088 0.002075 -6.949303 -39.273336 -7.458829 5.713005 70.197053 8.289551 -9.947020 -6.337907 -1.667722 -0.002434 -0.004552 -0.001080
124.480485 126.628146 32.294704 -13.896226 -22.245603 -2.346087 -1.054387 22.693005 3.163404 -0.226022 3.260641 0.473940 -0.355139 5.393002 0.824918 -0.946715 19.154181 2.711950 0.886327 6.218696 -1.290241 2.469582 -24.207717 -3.065239 5.074699 -9.598550 -3.696572 -4.713686 -43.156093 -1.843713 -94.212808 -30.695007 99.223432 -11.482097 -11.809921 17.240521 -10.579715 -13.234501 -2.529219 5.472242 -38.617083 6.694552 86.815369 -29.366440 -107.119103 21.024446 -20.777078 -12.525063 -2.515807 -45.681300 -2.034644 -19.297014 74.674986 -18.678020 1.493394 -4.067631 4.250310 0.002812 -0.014187 0.001248 -6.926102 -39.284561 -7.452109 5.711426 70.179150 8.296513 -9.942883 -6.323166 -1.671697 -0.000788 -0.004931 -0.000350
124.475049 126.628214 32.295288 -13.955789 -22.209711 -2.331715 -1.009272 22.789234 3.245741 -0.224147 3.216387 0.450372 -0.341409 5.426489 0.829626 -0.925031 19.192494 2.743174 1.018352 6.091056 -1.449242 2.826173 -24.433344 -3.461590 5.163181 -9.689627 -3.656840 -4.738405 -43.316154 -1.741320 -94.274146 -30.808300 98.480985 -11.737770 -11.946367 17.430406 -10.618252 -13.300088 -2.517509 5.231763 -38.671422 6.812809 86.831417 -29.384830 -106.019232 21.096140 -20.655205 -12.764393 -2.478350 -45.699353 -2.037746 -19.227486 74.625948 -18.589845 1.517588 -4.049684 4.237850 -0.001969 -0.004836 -0.000874 -6.882176 -39.318293 -7.440195 5.712638 70.165908 8.303502 -9.943034 -6.311194 -1.672612 0.001295 -0.006638 0.000575
124.468737 126.629926 32.303283 -13.964896 -22.205120 -2.325167 -0.997250 22.884024 3.294356 -0.220994 3.286008 0.481445 -0.347210 5.318895 0.777359 -0.885784 19.283967 2.791155 1.176446 5.966199 -1.614695 3.240163 -24.650637 -3.886417 5.223850 -9.765099 -3.608277 -4.733588 -43.436241 -1.637620 -94.354450 -30.807782 97.850283 -11.945151 -12.047967 17.617049 -10.649243 -13.353662 -2.503563 5.027043 -38.690166 6.906220 86.814899 -29.320135 -105.029633 21.188191 -20.427948 -13.084423 -2.465757 -45.692667 -2.055792 -19.170521 74.613938 -18.526079 1.528693 -4.053026 4.241139 -0.002809 -0.007051 -0.001247 -6.862114 -39.313375 -7.454199 5.713655 70.149197 8.320530 -9.955681 -6.305262 -1.671002 0.000775 -0.004436 0.000344
124.462843 126.629636 32.309700 -13.998556 -22.181059 -2.304203 -0.958619 22.930461 3.326317 -0.221485 3.304725 0.487465 -0.351684 5.289347 0.761972 -0.843157 19.345969 2.827500 1.358043 5.856072 -1.784894 3.704784 -24.837222 -4.334171 5.260209 -9.805137 -3.558815 -4.707203 -43.523353 -1.506523 -94.447440 -30.734967 97.297395 -12.088462 -12.098525 17.802363 -10.681683 -13.405552 -2.498230 4.894263 -38.653404 6.954903 86.746207 -29.200601 -104.140154 21.309789 -20.147314 -13.431499 -2.420912 -45.710026 -2.088255 -19.120648 74.601416 -18.454520 1.536824 -4.044758 4.229910 -0.001475 -0.006391 -0.000655 -6.820703 -39.329581 -7.471826 5.726857 70.137377 8.348300 -9.957062 -6.303403 -1.669654 0.001404 -0.003173 0.000623
